<svg xmlns="http://www.w3.org/2000/svg" xmlns:xlink="http://www.w3.org/1999/xlink" height="11.1902061910273" width="38.8667685605476">
  <g transform="translate(19.39404296875, 5.55230712890625) scale(-1, 1) translate(-19.39404296875, -5.55230712890625)" opacity="1">
    <g opacity="1">
      <path fill="rgb(0,189,242)" fill-opacity="1" opacity="1" fill-rule="evenodd" d="M2.40240478515625 6.42919921875L37.98223876953125 6.42919921875C38.42706298828125 6.42919921875 38.7880859375 6.0364990234375 38.7880859375 5.5526123046875C38.7880859375 5.0687255859375 38.42706298828125 4.676025390625 37.98223876953125 4.676025390625L2.40240478515625 4.676025390625C1.95758056640625 4.676025390625 1.5965576171875 5.0687255859375 1.5965576171875 5.5526123046875C1.5965576171875 6.0364990234375 1.95758056640625 6.42919921875 2.40240478515625 6.42919921875L2.40240478515625 6.42919921875Z"/>
    </g>
    <g transform="translate(2.955047607421875, 5.55230712890625) scale(-1, -1) translate(-2.955047607421875, -5.55230712890625)" opacity="1">
      <path fill="rgb(0,189,242)" fill-opacity="1" opacity="1" fill-rule="evenodd" d="M5.67401123046875 6.17236328125L1.376220703125 10.8475341796875C1.21917724609375 11.0194091796875 1.01300048828125 11.1046142578125 0.806640625 11.1046142578125C0.6004638671875 11.1046142578125 0.39410400390625 11.0194091796875 0.236083984375 10.8486328125C-0.07867431640625 10.506103515625 -0.07867431640625 9.9510498046875 0.236083984375 9.6085205078125L3.96453857421875 5.552734375L0.236083984375 1.496826171875C-0.07867431640625 1.1544189453125 -0.07867431640625 0.5992431640625 0.236083984375 0.2568359375C0.55108642578125 -0.0855712890625 1.0614013671875 -0.0855712890625 1.376220703125 0.2568359375L5.67401123046875 4.93212890625C5.98876953125 5.2745361328125 5.98876953125 5.8297119140625 5.67401123046875 6.17236328125Z"/>
    </g>
  </g>
</svg>