<svg width="39" height="12" viewBox="0 0 39 12" fill="none" xmlns="http://www.w3.org/2000/svg">
<path fill-rule="evenodd" clip-rule="evenodd" d="M36.386 6.4298H0.806C0.36 6.4298 0 6.0348 0 5.5518C0 5.0678 0.361 4.6748 0.806 4.6748H36.386C36.831 4.6748 37.192 5.0678 37.192 5.5518C37.192 6.0348 36.831 6.4278 36.386 6.4278V6.4298Z" fill="white"/>
<path fill-rule="evenodd" clip-rule="evenodd" d="M38.5521 4.932L34.2541 0.257C34.1824 0.176583 34.0946 0.112144 33.9964 0.0678671C33.8982 0.0235905 33.7918 0.000467451 33.6841 0C33.5765 0.000773646 33.4703 0.0239347 33.3721 0.0680089C33.274 0.112083 33.1861 0.176105 33.1141 0.256C32.962 0.426706 32.8779 0.647365 32.8779 0.876C32.8779 1.10463 32.962 1.32529 33.1141 1.496L36.8431 5.552L33.1141 9.608C32.962 9.77871 32.8779 9.99936 32.8779 10.228C32.8779 10.4566 32.962 10.6773 33.1141 10.848C33.1855 10.9287 33.2732 10.9934 33.3715 11.0376C33.4697 11.0819 33.5763 11.1048 33.6841 11.1048C33.7918 11.1048 33.8984 11.0819 33.9967 11.0376C34.0949 10.9934 34.1827 10.9287 34.2541 10.848L38.5521 6.172C38.704 6.00119 38.7879 5.78057 38.7879 5.552C38.7879 5.32343 38.704 5.10281 38.5521 4.932V4.932Z" fill="white"/>
</svg>
