<svg xmlns="http://www.w3.org/2000/svg" xmlns:xlink="http://www.w3.org/1999/xlink" height="35.2509176304784" width="13.637533394896309">
  <g transform="translate(6.870931832396309, 17.573242204292455) rotate(270.0000965423251) translate(-6.870931832396309, -17.573242204292455)" opacity="0.7">
    <g opacity="1">
      <path fill="rgb(255,255,255)" fill-opacity="1" opacity="1" fill-rule="evenodd" d="M23.36940595349006 18.642089860542455L23.36940595349006 18.642089860542455C23.96266767224006 18.642089860542455 24.44417401989631 18.163513200386205 24.44417401989631 17.573791520698705C24.44417401989631 16.984069841011205 23.96266767224006 16.505432145698705 23.36940595349006 16.505432145698705L-9.627542288697441 16.505432145698705C-10.220804007447441 16.505432145698705 -10.702310355103691 16.984069841011205 -10.702310355103691 17.573791520698705C-10.702310355103691 18.163513200386205 -10.220804007447441 18.642089860542455 -9.627542288697441 18.642089860542455L23.36940595349006 18.642089860542455Z"/>
    </g>
    <g opacity="1">
      <path fill="rgb(255,255,255)" fill-opacity="1" opacity="1" fill-rule="evenodd" d="M-3.895242484009941 24.339843766792455C-4.170511038697441 24.339843766792455 -4.445474417603691 24.236084001167455 -4.654886038697441 24.026611344917455L-10.386880667603691 18.328857438667455C-10.806741507447441 17.911315934761205 -10.806741507447441 17.234741227729955 -10.386880667603691 16.817382829292455L-4.654886038697441 11.119628923042455C-4.235025198853691 10.702331559761205 -3.554422171509941 10.702331559761205 -3.134317191041191 11.119628923042455C-2.714456351197441 11.536987321479955 -2.714456351197441 12.213562028511205 -3.134317191041191 12.630859391792455L-8.106973441041191 17.573791520698705L-3.134317191041191 22.516723649604955C-2.714456351197441 22.934021012886205 -2.714456351197441 23.610595719917455 -3.134317191041191 24.027893083198705C-3.345010550416191 24.236084001167455 -3.620279105103691 24.339843766792455 -3.895242484009941 24.339843766792455Z"/>
    </g>
  </g>
</svg>