<?xml version="1.0" encoding="utf-8"?>
<!-- Generator: Adobe Illustrator 16.0.0, SVG Export Plug-In . SVG Version: 6.00 Build 0)  -->
<!DOCTYPE svg PUBLIC "-//W3C//DTD SVG 1.1//EN" "http://www.w3.org/Graphics/SVG/1.1/DTD/svg11.dtd">
<svg version="1.1" id="Layer_1" xmlns="http://www.w3.org/2000/svg" xmlns:xlink="http://www.w3.org/1999/xlink" x="0px" y="0px"
	 width="28.987px" height="45.617px" viewBox="16.363 26.117 28.987 45.617" enable-background="new 16.363 26.117 28.987 45.617"
	 xml:space="preserve">
<path fill="#00BD70" d="M45.35,49.605c0-10.775-12.973-22.157-13.526-22.636c-0.401-0.348-1.045-0.348-1.445,0
	c-0.554,0.479-13.53,11.861-13.53,22.636c0,11.236,10.097,13.626,13.228,14.095v7.14c0,0.495,0.458,0.895,1.024,0.895
	c0.564,0,1.026-0.399,1.026-0.895v-7.136C35.159,63.253,45.35,60.896,45.35,49.605 M32.127,61.9v-5.813l4.974-4.337
	c0.401-0.35,0.401-0.914,0-1.265c-0.399-0.35-1.052-0.35-1.451,0l-3.522,3.074V39.133c0-0.494-0.462-0.895-1.026-0.895
	c-0.566,0-1.024,0.4-1.024,0.895v7.777l-4.173-3.636c-0.4-0.349-1.047-0.349-1.449,0c-0.399,0.349-0.399,0.915,0,1.264l5.621,4.898
	v12.465c-2.896-0.453-11.177-2.59-11.177-12.295c0-8.631,9.478-18.15,12.202-20.708c2.723,2.559,12.199,12.078,12.199,20.708
	C43.3,59.306,35.025,61.446,32.127,61.9"/>
</svg>
