<svg class="mn-header__link-icon" xmlns="http://www.w3.org/2000/svg" xmlns:xlink="http://www.w3.org/1999/xlink" fill="#ffffff" height="21.000000000000526" width="21">
    <g opacity="1">
        <g opacity="1">
            <path fill-opacity="1" opacity="1" fill-rule="evenodd"
                d="M0.77777099609375 2.2737367544323206e-13L8.866668701171875 2.2737367544323206e-13C9.294448852539062 2.2737367544323206e-13 9.644439697265625 0.3499984741213211 9.644439697265625 0.7777786254885086L9.644439697265625 8.866668701172102C9.644439697265625 9.294445037842024 9.294448852539062 9.644443511963118 8.866668701171875 9.644443511963118L0.77777099609375 9.644443511963118C0.350006103515625 9.644443511963118 0 9.294445037842024 0 8.866668701172102L0 0.7777786254885086C0 0.3499984741213211 0.350006103515625 2.2737367544323206e-13 0.77777099609375 2.2737367544323206e-13ZM1.5555572509765625 8.088890075683821L8.088897705078125 8.088890075683821L8.088897705078125 1.5555572509767899L1.5555572509765625 1.5555572509767899L1.5555572509765625 8.088890075683821Z" />
        </g>
        <g opacity="1">
            <path fill-opacity="1" opacity="1" fill-rule="evenodd"
                d="M12.133331298828125 2.2737367544323206e-13L20.22222900390625 2.2737367544323206e-13C20.650009155273438 2.2737367544323206e-13 21 0.3499984741213211 21 0.7777786254885086L21 8.866668701172102C21 9.294445037842024 20.650009155273438 9.644443511963118 20.22222900390625 9.644443511963118L12.133331298828125 9.644443511963118C11.70556640625 9.644443511963118 11.355560302734375 9.294445037842024 11.355560302734375 8.866668701172102L11.355560302734375 0.7777786254885086C11.355560302734375 0.3499984741213211 11.70556640625 2.2737367544323206e-13 12.133331298828125 2.2737367544323206e-13ZM12.911117553710938 8.088890075683821L19.4444580078125 8.088890075683821L19.4444580078125 1.5555572509767899L12.911117553710938 1.5555572509767899L12.911117553710938 8.088890075683821Z" />
        </g>
        <g opacity="1">
            <path fill-opacity="1" opacity="1" fill-rule="evenodd"
                d="M0.77777099609375 11.355556488037337L8.866668701171875 11.355556488037337C9.294448852539062 11.355556488037337 9.644439697265625 11.70555496215843 9.644439697265625 12.133335113525618L9.644439697265625 20.222221374511946C9.644439697265625 20.650001525879134 9.294448852539062 21.000000000000227 8.866668701171875 21.000000000000227L0.77777099609375 21.000000000000227C0.350006103515625 21.000000000000227 0 20.650001525879134 0 20.222221374511946L0 12.133335113525618C0 11.70555496215843 0.350006103515625 11.355556488037337 0.77777099609375 11.355556488037337ZM1.5555572509765625 19.444442749023665L8.088897705078125 19.444442749023665L8.088897705078125 12.911109924316634L1.5555572509765625 12.911109924316634L1.5555572509765625 19.444442749023665Z" />
        </g>
        <g opacity="1">
            <path fill-opacity="1" opacity="1" fill-rule="evenodd"
                d="M12.133331298828125 11.355556488037337L20.22222900390625 11.355556488037337C20.650009155273438 11.355556488037337 21 11.70555496215843 21 12.133335113525618L21 20.222221374511946C21 20.650001525879134 20.650009155273438 21.000000000000227 20.22222900390625 21.000000000000227L12.133331298828125 21.000000000000227C11.70556640625 21.000000000000227 11.355560302734375 20.650001525879134 11.355560302734375 20.222221374511946L11.355560302734375 12.133335113525618C11.355560302734375 11.70555496215843 11.70556640625 11.355556488037337 12.133331298828125 11.355556488037337ZM12.911117553710938 19.444442749023665L19.4444580078125 19.444442749023665L19.4444580078125 12.911109924316634L12.911117553710938 12.911109924316634L12.911117553710938 19.444442749023665Z" />
        </g>
    </g>
</svg>