<svg width="39" height="12" viewBox="0 0 39 12" fill="none" xmlns="http://www.w3.org/2000/svg"><path fill-rule="evenodd" clip-rule="evenodd" d="M36.386 6.43H.806C.36 6.43 0 6.035 0 5.552c0-.484.361-.877.806-.877h35.58c.445 0 .806.393.806.877 0 .483-.361.876-.806.876v.002z" fill="#fff"/><path fill-rule="evenodd" clip-rule="evenodd" d="M38.552 4.932L34.254.257a.768.768 0 00-.57-.257.775.775 0 00-.57.256.932.932 0 000 1.24l3.73 4.056-3.73 4.056a.932.932 0 000 1.24.76.76 0 001.14 0l4.298-4.676a.933.933 0 000-1.24z" fill="#fff"/></svg>