<svg xmlns="http://www.w3.org/2000/svg" width="28.987" height="45.617" viewBox="16.363 26.117 28.987 45.617"><path fill="#00BD70" d="M45.35 49.605c0-10.775-12.973-22.157-13.526-22.636a1.13 1.13 0 00-1.445 0c-.554.479-13.53 11.861-13.53 22.636 0 11.236 10.097 13.626 13.228 14.095v7.14c0 .495.458.895 1.024.895.564 0 1.026-.399 1.026-.895v-7.136c3.032-.451 13.223-2.808 13.223-14.099M32.127 61.9v-5.813l4.974-4.337c.401-.35.401-.914 0-1.265a1.134 1.134 0 00-1.451 0l-3.522 3.074V39.133c0-.494-.462-.895-1.026-.895-.566 0-1.024.4-1.024.895v7.777l-4.173-3.636a1.134 1.134 0 00-1.449 0 .817.817 0 000 1.264l5.621 4.898v12.465c-2.896-.453-11.177-2.59-11.177-12.295 0-8.631 9.478-18.15 12.202-20.708 2.723 2.559 12.199 12.078 12.199 20.708-.001 9.7-8.276 11.84-11.174 12.294"/></svg>