<svg xmlns="http://www.w3.org/2000/svg" height="34.5" width="217"><path stroke="#7392AA" stroke-linecap="round" stroke-linejoin="round" d="M.5 34L20.5.5m20 33.5L60.5.5m20 33.5l20-33.5m20 33.5l20-33.5m19 33.5l20-33.5M3.5 34L23.5.5m20 33.5L63.5.5m20 33.5l20-33.5m20 33.5l20-33.5m20 33.5l20-33.5M7.5 34L27.5.5m20 33.5L67.5.5m19 33.5l20-33.5m20 33.5l20-33.5m20 33.5l20-33.5M10.5 34L30.5.5m20 33.5L70.5.5m20 33.5l20-33.5m20 33.5l20-33.5m19 33.5l20-33.5M13.5 34L33.5.5m20 33.5L73.5.5m20 33.5l20-33.5m20 33.5l20-33.5m20 33.5l20-33.5M17.5 34L37.5.5m19 33.5L76.5.5m20 33.5l20-33.5m20 33.5l20-33.5m20 33.5l20-33.5M20.5 34L40.5.5m20 33.5L80.5.5m20 33.5l20-33.5m20 33.5l20-33.5m19 33.5l20-33.5M23.5 34L43.5.5m20 33.5L83.5.5m20 33.5l20-33.5m20 33.5l20-33.5m20 33.5l20-33.5M27.5 34L47.5.5m19 33.5L86.5.5m20 33.5l20-33.5m20 33.5l20-33.5m20 33.5l20-33.5M30.5 34L50.5.5m20 33.5L90.5.5m20 33.5l20-33.5m19 33.5l20-33.5m20 33.5l20-33.5M33.5 34L53.5.5m20 33.5L93.5.5m20 33.5l20-33.5m20 33.5l20-33.5m20 33.5l20-33.5M37.5 34L57.5.5m19 33.5L96.5.5m20 33.5l20-33.5m20 33.5l20-33.5m20 33.5l20-33.5" fill="none" opacity=".2"/></svg>