<svg class="mn-header__link-icon" xmlns="http://www.w3.org/2000/svg" fill="#fff" height="21" width="21"><path fill-rule="evenodd" d="M.778 0h8.089a.78.78 0 01.777.778v8.089a.78.78 0 01-.777.777H.777A.78.78 0 010 8.867V.777A.78.78 0 01.778 0zm.778 8.089h6.533V1.556H1.556v6.533zM12.133 0h8.09A.78.78 0 0121 .778v8.089a.78.78 0 01-.778.777h-8.089a.78.78 0 01-.777-.777V.777A.78.78 0 0112.133 0zm.778 8.089h6.533V1.556h-6.533v6.533zM.778 11.356h8.089a.78.78 0 01.777.777v8.09a.78.78 0 01-.777.777H.777A.78.78 0 010 20.222v-8.089a.78.78 0 01.778-.777zm.778 8.088h6.533v-6.533H1.556v6.533zm10.577-8.088h8.09a.78.78 0 01.777.777v8.09a.78.78 0 01-.778.777h-8.089a.78.78 0 01-.777-.778v-8.089a.78.78 0 01.777-.777zm.778 8.088h6.533v-6.533h-6.533v6.533z"/></svg>